<svg width="20" height="20" viewBox="0 0 20 20" fill="none" xmlns="http://www.w3.org/2000/svg">
<path d="M10 0C4.47656 0 0 4.47656 0 10C0 14.2383 2.63672 17.8555 6.35547 19.3125C6.26953 18.5195 6.1875 17.3086 6.39063 16.4453C6.57422 15.6641 7.5625 11.4766 7.5625 11.4766C7.5625 11.4766 7.26172 10.8789 7.26172 9.99219C7.26172 8.60156 8.06641 7.5625 9.07031 7.5625C9.92188 7.5625 10.3359 8.20312 10.3359 8.97266C10.3359 9.83203 9.78906 11.1133 9.50781 12.3008C9.27344 13.2969 10.0078 14.1094 10.9883 14.1094C12.7656 14.1094 14.1328 12.2344 14.1328 9.53125C14.1328 7.13672 12.4141 5.46094 9.95703 5.46094C7.11328 5.46094 5.44141 7.59375 5.44141 9.80078C5.44141 10.6602 5.77344 11.582 6.1875 12.082C6.26953 12.1797 6.28125 12.2695 6.25781 12.3672C6.18359 12.6836 6.01172 13.3633 5.98047 13.5C5.9375 13.6836 5.83594 13.7227 5.64453 13.6328C4.39453 13.0508 3.61328 11.2266 3.61328 9.75781C3.61328 6.60156 5.90625 3.70703 10.2188 3.70703C13.6875 3.70703 16.3828 6.17969 16.3828 9.48438C16.3828 12.9297 14.2109 15.7031 11.1953 15.7031C10.1836 15.7031 9.23047 15.1758 8.90234 14.5547C8.90234 14.5547 8.40234 16.4648 8.28125 16.9336C8.05469 17.8008 7.44531 18.8906 7.03906 19.5547C7.97656 19.8438 8.96875 20 10 20C15.5234 20 20 15.5234 20 10C20 4.47656 15.5234 0 10 0Z" fill="#40393B"/>
</svg>
