<svg width="177" height="17" viewBox="0 0 177 17" fill="none" xmlns="http://www.w3.org/2000/svg">
<path d="M1.55039 1.25395L0 1.03899V0.143309H9.64487L9.82515 3.18862H8.65334L8.11251 1.20021L3.47936 1.07482V6.26976L6.7424 6.21602L7.04887 4.72919H8.00434V8.92097H7.0669L6.7424 7.36249L3.47936 7.29083V12.3962L6.2917 12.5753V13.4531H0.108167V12.5753L1.55039 12.3962V1.25395Z" fill="#59313B"/>
<path d="M13.1087 1.25395L11.6485 1.03899V0.143309H16.8225V1.03899L15.0377 1.25395V12.3962L19.6889 12.235L20.7525 9.2255L21.8522 9.38672L21.2213 13.4531H11.6124V12.5753L13.1087 12.3962V1.25395Z" fill="#59313B"/>
<path d="M28.8252 13.6502C27.5993 13.6502 26.5597 13.3695 25.7064 12.8082C24.8651 12.2469 24.2281 11.4587 23.7954 10.4436C23.3628 9.41658 23.1464 8.22831 23.1464 6.87882C23.1464 5.50544 23.4048 4.29926 23.9216 3.26027C24.4504 2.22129 25.1715 1.42115 26.085 0.859853C26.9984 0.286618 28.0259 0 29.1677 0C31.0426 0 32.4728 0.591149 33.4583 1.77345C34.4559 2.9438 34.9546 4.56797 34.9546 6.64594C34.9546 8.0432 34.6842 9.27327 34.1434 10.3361C33.6146 11.3871 32.8814 12.2051 31.944 12.7903C31.0186 13.3635 29.979 13.6502 28.8252 13.6502ZM29.0595 0.931507C27.8937 0.931507 26.9743 1.43906 26.3013 2.45416C25.6283 3.45732 25.2917 4.93221 25.2917 6.87882C25.2917 8.67018 25.6162 10.0913 26.2652 11.1423C26.9263 12.1812 27.8457 12.7007 29.0235 12.7007C30.1773 12.7007 31.0907 12.1812 31.7637 11.1423C32.4488 10.1033 32.7913 8.61047 32.7913 6.66386C32.7913 4.86056 32.4668 3.45732 31.8178 2.45416C31.1688 1.43906 30.2494 0.931507 29.0595 0.931507Z" fill="#59313B"/>
<path d="M36.7336 12.5753L38.2299 12.3962V1.25395L36.8237 1.02108V0.143309H39.1854C39.5219 0.143309 39.9786 0.119424 40.5555 0.0716545C41.1564 0.0238848 41.6252 0 41.9617 0C43.7284 0 44.9843 0.286618 45.7295 0.859853C46.4866 1.42115 46.8652 2.31085 46.8652 3.52898C46.8652 4.37689 46.6249 5.15314 46.1441 5.85775C45.6754 6.56235 45.0264 7.04004 44.1971 7.29083C44.5817 7.49385 44.9363 7.84615 45.2608 8.34773C45.5973 8.83737 46.0059 9.52406 46.4866 10.4078C46.8592 11.0766 47.1417 11.5662 47.334 11.8767C47.5383 12.1872 47.7306 12.3604 47.9108 12.3962L48.6139 12.5753V13.4531H46.1261C45.9338 13.4531 45.7175 13.2501 45.4771 12.844C45.2367 12.4261 44.9182 11.7871 44.5216 10.9273C44.089 9.98384 43.7104 9.23744 43.3859 8.68809C43.0734 8.1268 42.7609 7.76853 42.4484 7.61328C41.1624 7.61328 40.3993 7.60731 40.1589 7.59536V12.3962L41.9436 12.5753V13.4531H36.7336V12.5753ZM42.3042 6.64594C43.0734 6.64594 43.6803 6.39515 44.125 5.89357C44.5697 5.39199 44.792 4.64559 44.792 3.65437C44.792 2.78258 44.5637 2.11978 44.107 1.66596C43.6623 1.20021 42.8871 0.967334 41.7814 0.967334C41.3968 0.967334 41.0122 0.991219 40.6276 1.03899C40.3872 1.06287 40.231 1.07482 40.1589 1.07482V6.62803C40.3392 6.63997 40.7117 6.64594 41.2766 6.64594H42.3042Z" fill="#59313B"/>
<path d="M54.1863 0.0358278H56.1694L60.5502 12.3962L61.6679 12.5753V13.4531H56.9085V12.5753L58.4049 12.3962L57.5575 9.745H52.2934L51.4461 12.3962L52.9965 12.5753V13.4531H48.7239V12.5753L49.8416 12.3962L54.1863 0.0358278ZM55.3221 2.902L54.8714 1.32561L54.4387 2.93783L52.6179 8.68809H57.215L55.3221 2.902Z" fill="#59313B"/>
<path d="M64.1626 1.25395L62.7024 1.03899V0.143309H67.8763V1.03899L66.0916 1.25395V12.3962L70.7428 12.235L71.8064 9.2255L72.9061 9.38672L72.2751 13.4531H62.6663V12.5753L64.1626 12.3962V1.25395Z" fill="#59313B"/>
<path d="M80.5516 1.25395L79.0733 1.03899V0.143309H81.507C81.9157 0.143309 82.4325 0.119424 83.0574 0.0716545C83.6343 0.0238848 84.061 0 84.3374 0C85.996 0 87.1798 0.256762 87.8889 0.770285C88.61 1.28381 88.9706 2.03618 88.9706 3.0274C88.9706 3.87531 88.7242 4.60379 88.2314 5.21286C87.7387 5.82192 87.0656 6.20407 86.2123 6.35933C87.3661 6.33544 88.2735 6.60414 88.9345 7.16544C89.5955 7.72673 89.926 8.49104 89.926 9.45838C89.926 10.6646 89.4934 11.6498 88.628 12.4141C87.7747 13.1784 86.3565 13.5606 84.3735 13.5606C83.9408 13.5606 83.5262 13.5427 83.1295 13.5068C82.1921 13.471 81.6332 13.4531 81.453 13.4531H79.0553V12.5753L80.5516 12.3962V1.25395ZM82.4625 6.01897C82.6308 6.03091 82.9733 6.03688 83.4901 6.03688H84.4816C85.3229 6.03688 85.9599 5.804 86.3926 5.33825C86.8252 4.8725 87.0416 4.20969 87.0416 3.34984C87.0416 2.51387 86.8252 1.90481 86.3926 1.52266C85.9599 1.12856 85.2208 0.931507 84.1752 0.931507C83.7425 0.931507 83.2978 0.955391 82.8411 1.00316L82.4625 1.03899V6.01897ZM82.4625 12.4499C82.7389 12.5455 83.3639 12.5933 84.3374 12.5933C85.5513 12.5933 86.4286 12.3484 86.9695 11.8588C87.5223 11.3572 87.7987 10.6407 87.7987 9.70917C87.7987 8.7896 87.5584 8.12083 87.0776 7.70285C86.6089 7.28486 85.8457 7.07587 84.7881 7.07587C83.5622 7.07587 82.787 7.08781 82.4625 7.1117V12.4499Z" fill="#59313B"/>
<path d="M97.2195 13.6502C95.9937 13.6502 94.954 13.3695 94.1007 12.8082C93.2594 12.2469 92.6225 11.4587 92.1898 10.4436C91.7571 9.41658 91.5408 8.22831 91.5408 6.87882C91.5408 5.50544 91.7992 4.29926 92.316 3.26027C92.8448 2.22129 93.5659 1.42115 94.4793 0.859853C95.3927 0.286618 96.4203 0 97.5621 0C99.437 0 100.867 0.591149 101.853 1.77345C102.85 2.9438 103.349 4.56797 103.349 6.64594C103.349 8.0432 103.079 9.27327 102.538 10.3361C102.009 11.3871 101.276 12.2051 100.338 12.7903C99.4129 13.3635 98.3733 13.6502 97.2195 13.6502ZM97.4539 0.931507C96.2881 0.931507 95.3687 1.43906 94.6956 2.45416C94.0226 3.45732 93.6861 4.93221 93.6861 6.87882C93.6861 8.67018 94.0106 10.0913 94.6596 11.1423C95.3206 12.1812 96.24 12.7007 97.4178 12.7007C98.5716 12.7007 99.485 12.1812 100.158 11.1423C100.843 10.1033 101.186 8.61047 101.186 6.66386C101.186 4.86056 100.861 3.45732 100.212 2.45416C99.5631 1.43906 98.6437 0.931507 97.4539 0.931507Z" fill="#59313B"/>
<path d="M111.167 13.5964C109.401 13.5964 108.097 13.1307 107.255 12.1992C106.426 11.2557 106.011 9.79874 106.011 7.82824V1.25395L104.731 1.03899V0.143309H109.545V1.03899L108.012 1.27187V8.02529C108.012 9.64946 108.301 10.8198 108.878 11.5364C109.467 12.2529 110.308 12.6112 111.402 12.6112C112.495 12.6112 113.313 12.229 113.853 11.4647C114.406 10.7004 114.683 9.58974 114.683 8.13277V1.27187L113.168 1.03899V0.143309H117.369V1.03899L116.053 1.25395V8.0432C116.053 9.90622 115.608 11.2975 114.719 12.2171C113.829 13.1366 112.646 13.5964 111.167 13.5964Z" fill="#59313B"/>
<path d="M123.232 1.09273L120.131 1.20021L119.5 4.94415H118.311L118.617 0.143309H129.848L130.065 4.94415H128.929L128.334 1.20021L125.215 1.09273V12.3962L127.775 12.5753V13.4531H120.888V12.5753L123.232 12.3962V1.09273Z" fill="#59313B"/>
<path d="M133.497 1.25395L131.82 1.03899V0.143309H137.12V1.03899L135.444 1.25395V12.3962L137.12 12.5933V13.4531H131.838V12.5753L133.497 12.3962V1.25395Z" fill="#59313B"/>
<path d="M153.063 17C152.522 17 152.011 16.9104 151.53 16.7313C151.05 16.5522 150.611 16.3312 150.214 16.0685C149.83 15.8177 149.367 15.4833 148.826 15.0653C148.237 14.6115 147.739 14.2592 147.33 14.0084C146.933 13.7576 146.525 13.5904 146.104 13.5068C145.659 13.6024 145.227 13.6502 144.806 13.6502C143.592 13.6502 142.559 13.3695 141.705 12.8082C140.852 12.2469 140.209 11.4587 139.776 10.4436C139.344 9.41658 139.127 8.22831 139.127 6.87882C139.127 5.50544 139.386 4.29926 139.902 3.26027C140.431 2.22129 141.152 1.42115 142.066 0.859853C142.979 0.286618 144.013 0 145.167 0C147.041 0 148.472 0.591149 149.457 1.77345C150.443 2.9438 150.935 4.56797 150.935 6.64594C150.935 8.18651 150.611 9.51809 149.962 10.6407C149.325 11.7633 148.46 12.5813 147.366 13.0948C147.907 13.1426 148.43 13.274 148.934 13.4889C149.439 13.7039 150.034 14.0084 150.719 14.4025C151.476 14.8086 152.089 15.1071 152.558 15.2982C153.027 15.4893 153.507 15.5848 154 15.5848C154.205 15.5848 154.391 15.5729 154.559 15.549L154.775 16.3193C154.559 16.5462 154.301 16.7134 154 16.8209C153.7 16.9403 153.387 17 153.063 17ZM145.004 12.7007C146.17 12.7007 147.09 12.1872 147.763 11.1602C148.436 10.1212 148.772 8.62241 148.772 6.66386C148.772 4.86056 148.448 3.45732 147.799 2.45416C147.15 1.43906 146.236 0.931507 145.058 0.931507C143.893 0.931507 142.967 1.43309 142.282 2.43625C141.609 3.43941 141.273 4.92027 141.273 6.87882C141.273 8.67018 141.597 10.0913 142.246 11.1423C142.907 12.1812 143.827 12.7007 145.004 12.7007Z" fill="#59313B"/>
<path d="M158.806 13.5964C157.039 13.5964 155.735 13.1307 154.894 12.1992C154.064 11.2557 153.65 9.79874 153.65 7.82824V1.25395L152.37 1.03899V0.143309H157.183V1.03899L155.651 1.27187V8.02529C155.651 9.64946 155.939 10.8198 156.516 11.5364C157.105 12.2529 157.946 12.6112 159.04 12.6112C160.134 12.6112 160.951 12.229 161.492 11.4647C162.045 10.7004 162.321 9.58974 162.321 8.13277V1.27187L160.807 1.03899V0.143309H165.007V1.03899L163.691 1.25395V8.0432C163.691 9.90622 163.247 11.2975 162.357 12.2171C161.468 13.1366 160.284 13.5964 158.806 13.5964Z" fill="#59313B"/>
<path d="M167.968 1.25395L166.49 1.03899V0.143309H175.666L175.918 2.91992H174.891L174.368 1.1823L169.897 1.07482V6.12645L172.908 6.07271L173.16 4.58588H174.152V8.70601H173.16L172.908 7.16544L169.897 7.1117V12.4499L174.981 12.2708L175.936 10.0137L177 10.3361L176.477 13.4531H166.472V12.5753L167.968 12.3962V1.25395Z" fill="#59313B"/>
</svg>
